<svg xmlns="http://www.w3.org/2000/svg" xmlns:xlink="http://www.w3.org/1999/xlink" version="1.1" x="0px" y="0px" viewBox="0 0 283.5 354.375" enable-background="new 0 0 283.5 283.5" xml:space="preserve"><g><defs><rect id="b" x="-0.5" y="0" width="283.9" height="283.9"/></defs><clipPath id="a"><use xlink:href="#b" overflow="visible"/></clipPath><path clip-path="url(#a)" d="M218,196.9H69.1v-90.4c32.7,32.7,66.5,66.5,66.5,66.5s9.1,9.1,20.7-2.6   c6.9-6.9,37.8-37.8,61.6-61.6V196.9z M203.2,94.2l-57.9,57.9L87.3,94.2H203.2z M224.3,75.9c-13.1,0-160.5-0.2-160.5-0.2   s-13.5-1.3-13.5,13.1v115.7c0,0,0.1,11.2,13.1,11.2h161.9c0,0,11.7,0,11.7-14.5V88.8C236.9,88.8,237.4,75.9,224.3,75.9 M266.9,142   c0,69.2-56.1,125.4-125.4,125.4S16.1,211.2,16.1,142S72.3,16.6,141.5,16.6S266.9,72.7,266.9,142 M283.5,142   c0-78.4-63.6-142-142-142s-142,63.6-142,142c0,78.4,63.6,142,142,142S283.5,220.4,283.5,142"/></g><text x="0" y="298.5" fill="#000000" font-size="5px" font-weight="bold" font-family="'Helvetica Neue', Helvetica, Arial-Unicode, Arial, Sans-serif">Created by Lucas Olaerts</text><text x="0" y="303.5" fill="#000000" font-size="5px" font-weight="bold" font-family="'Helvetica Neue', Helvetica, Arial-Unicode, Arial, Sans-serif">from the Noun Project</text></svg>