<svg xmlns="http://www.w3.org/2000/svg" xmlns:xlink="http://www.w3.org/1999/xlink" version="1.1" x="0px" y="0px" viewBox="0 0 283.5 354.375" enable-background="new 0 0 283.5 283.5" xml:space="preserve"><g><defs><rect id="b" x="57.4" width="169.3" height="283.2"/></defs><clipPath id="a"><use xlink:href="#b" overflow="visible"/></clipPath><path clip-path="url(#a)" fill="#000000" d="M184.2,80.4c0,23.6-19.2,42.8-42.8,42.8S98.7,104,98.7,80.4   s19.1-42.8,42.8-42.8S184.2,56.8,184.2,80.4 M226.7,84.6C226.7,37.9,188.8,0,142,0C95.3,0,57.4,37.9,57.4,84.6c0,1,0,2,0.1,3   c0.3,7.7,1.6,15,3.8,22.1C66.3,126.8,83,169,136.5,257c-4.8,2.1-8.2,6.9-8.2,12.5c0,7.6,6.1,13.7,13.7,13.7   c7.6,0,13.7-6.1,13.7-13.7c0-5.5-3.3-10.2-7.9-12.4c14.8-23.4,54.2-87.9,71.8-138.5C224.1,108.2,226.7,96.7,226.7,84.6"/></g><text x="0" y="298.5" fill="#000000" font-size="5px" font-weight="bold" font-family="'Helvetica Neue', Helvetica, Arial-Unicode, Arial, Sans-serif">Created by Lucas Olaerts</text><text x="0" y="303.5" fill="#000000" font-size="5px" font-weight="bold" font-family="'Helvetica Neue', Helvetica, Arial-Unicode, Arial, Sans-serif">from the Noun Project</text></svg>