<svg xmlns="http://www.w3.org/2000/svg" xmlns:xlink="http://www.w3.org/1999/xlink" version="1.1" x="0px" y="0px" viewBox="0 0 283.5 354.375" enable-background="new 0 0 283.5 283.5" xml:space="preserve"><g><defs><rect id="b" x="-0.5" y="0" width="283.9" height="283.9"/></defs><clipPath id="a"><use xlink:href="#b" overflow="visible"/></clipPath><path clip-path="url(#a)" d="M196.3,195.9c-13.4,13.4-32.7,19.3-85.6-30.2C67,124.6,77.1,96.9,87.2,88.5   c10.1-8.4,17.6-11.7,20.1-6.7l17.6,26c0,0,4.2,4.2-3.4,8.4c-7.6,4.2-13.4,6.7-5.9,15.1c7.6,8.4,38.6,38.6,38.6,38.6   s6.7,8.4,13.4-7.6c4.2-10.1,10.1-2.5,10.1-2.5s22.7,15.1,25.2,17.6C203,177.5,209.7,182.5,196.3,195.9 M208,206   c20.1-20.1,12.6-35.2,4.2-42c-8.4-6.7-4.2-2.5-23.5-16.8c-19.3-14.3-31.9,2.5-31.9,2.5l-22.7-22.7c17.6-17.6,3.4-29.4-12.6-52.9   c-15.9-23.5-38.6-3.4-42-0.8c-3.4,2.5-45.3,32.7,14.3,97.3C153.5,235.4,187.9,226.1,208,206 M266.9,142   c0,69.2-56.1,125.4-125.4,125.4S16.1,211.2,16.1,142S72.3,16.6,141.5,16.6S266.9,72.7,266.9,142 M283.5,142   c0-78.4-63.6-142-142-142s-142,63.6-142,142c0,78.4,63.6,142,142,142S283.5,220.4,283.5,142"/></g><text x="0" y="298.5" fill="#000000" font-size="5px" font-weight="bold" font-family="'Helvetica Neue', Helvetica, Arial-Unicode, Arial, Sans-serif">Created by Lucas Olaerts</text><text x="0" y="303.5" fill="#000000" font-size="5px" font-weight="bold" font-family="'Helvetica Neue', Helvetica, Arial-Unicode, Arial, Sans-serif">from the Noun Project</text></svg>